<?xml version="1.0" encoding="UTF-8"?>
<svg id="Layer_2" data-name="Layer 2" xmlns="http://www.w3.org/2000/svg" viewBox="0 0 324.96 138">
  <defs>
    <style>
      .cls-1 {
        fill: #111;
      }
    </style>
  </defs>
  <g id="Layer_1-2" data-name="Layer 1">
    <path class="cls-1" d="M235.13,102.6l-9.2,34.4h-27.81l-40.24-64.65-5.44-7.7,3.51-1.91c7.78-.35,13.37-1.04,19.75-2.57,8.51-4.25,13.45-11.3,12.85-20.77-.82-8.74-7.66-14.94-17.36-17.4h-30.66l1,35.18v76.7l-2.67,3.12h-40.02l-14.04-50.73-8.28-29.12-2.63-12.46-1.79-2.83-2.47,1.84-11.39,23.08-9.14,17.41-6.47,13.81-15.78,30.99-5.91,9.01H0l.59-6.33,10.68-20.3,28.01-55.8c5.45-10.21,10.02-19.64,14.4-29.69L66.33,1.01l17.46-.41,3.06,3.03,20.79,81.18,8.89,27.43V0h51.75c13.5.12,26.06,5.02,34.82,15.05,10.26,12.96,10.93,29.84,4.08,45.43-4.67,7.97-11.26,12.83-19.92,16.27l.52,3.53,17.46,27.14c1.87,2.02,4.26,2.96,3.75.6l2.8-7.84,23.14-83.95,3.4-12.25,2.76-2.98,16.73-.08,7.05,12.27,8.5,18.67,13.54,27.47,33.32,67.04,4.72,10.19-21.23.75-4.96-4.35-28.77-58.21-15.21-30.65-2.17-2.01-1.43,2.69-5.44,20.5-10.69,37.28.06.03.02.02Z"/>
  </g>
</svg>