<?xml version="1.0" encoding="UTF-8"?>
<svg id="Layer_2" data-name="Layer 2" xmlns="http://www.w3.org/2000/svg" viewBox="0 0 325.02 136.76">
  <defs>
    <style>
      .cls-1 {
        fill: #111;
      }
    </style>
  </defs>
  <g id="Layer_1-2" data-name="Layer 1">
    <path class="cls-1" d="M235.08,102.02l-9.21,34.44-27.75-.15-40.24-64.56-5.44-7.7,3.51-1.91c7.78-.35,13.37-1.04,19.75-2.57,8.51-4.25,13.45-11.3,12.85-20.77-.82-8.74-7.66-14.94-17.36-17.82l-30.28-.08-.28,35.68.24,76.7-2.01,3.02-40.02.1-14.04-50.73-8.28-29.12-2.63-12.46-1.79-2.83-2.47,1.84-11.39,23.08-9.14,17.41-6.47,13.81-15.78,30.99-5.91,8.27-20.94-.31.59-5.28,10.68-20.3,28.01-55.8c5.45-10.21,10.02-19.64,14.4-29.69L66.33.41l17.46-.41,3.06,3.03,20.79,81.18,9.25,27.43L117.19.24l51.09-.06c13.5-.66,26.06,4.24,34.82,14.27,10.26,12.96,10.93,29.84,4.08,45.43-4.67,7.97-11.26,12.83-19.92,16.27l.52,3.53,17.46,27.14c1.87,2.02,4.26,2.96,3.75.6l2.8-7.84,23.14-83.95,3.4-12.25,2.76-3.09,16.71-.08,7.06,12.29,8.51,18.69,13.56,27.5,33.36,67.12,4.73,10.2-21.26.75-4.97-4.36-28.81-58.28-15.23-30.69-2.17-2.01-1.43,2.69-5.45,20.53-10.7,37.33.06.03.02.02Z"/>
  </g>
</svg>