<svg xmlns="http://www.w3.org/2000/svg" viewBox="0 0 600 160" fill="none">
  <g fill="#FFFFFF">
    <!-- A (first) - Bold geometric with open counter -->
    <path d="M0 128 L52 8 h24 L128 128 h-28 L88.5 96 H39.5 L28 128 H0z M47 74 h34 L64 30 L47 74z"/>
    <!-- R - Geometric with angular bowl and diagonal leg -->
    <path d="M140 8 h60 c30 0 48 16 48 40 c0 20-12 34-32 38.5 L252 128 h-30 L190 90 h-22 v38 h-28 V8z M195.5 68 c16 0 25-9 25-22 s-9-20-25-20 H168 v42 h27.5z"/>
    <!-- A (second) - Bold geometric matching first A -->
    <path d="M260 128 L312 8 h24 L388 128 h-28 L348.5 96 H299.5 L288 128 H260z M307 74 h34 L324 30 L307 74z"/>
    <!-- F - Bold geometric with two arms -->
    <path d="M400 8 h88 v22 h-60 v28 h52 v22 h-52 v48 h-28 V8z"/>
  </g>
  <!-- Tagline -->
  <text x="1" y="152" font-family="Inter, system-ui, -apple-system, sans-serif" font-size="15" font-weight="500" letter-spacing="0.2em" fill="rgba(255,255,255,0.6)">AUTONOMOUS RELIABILITY ASSURANCE FOUNDATION</text>
</svg>