<svg xmlns="http://www.w3.org/2000/svg" viewBox="0 0 320 80" fill="none">
  <g fill="#111111">
    <!-- A -->
    <path d="M0 64L20 16h8l20 48h-8.5L34.2 48H13.8L8.5 64H0zm15.8-22h16.4L24 22.4 15.8 42z"/>
    <!-- R -->
    <path d="M56 16h20c10.5 0 17 6 17 15 0 7.5-4.2 12.5-11 14.2L93.5 64H84L73.5 46.5H64V64h-8V16zm19.5 24c6 0 9.5-3.2 9.5-9s-3.5-9-9.5-9H64v18h11.5z"/>
    <!-- A -->
    <path d="M104 64l20-48h8l20 48h-8.5L138.2 48h-20.4l-5.3 16H104zm15.8-22h16.4L128 22.4l-8.2 19.6z"/>
    <!-- F -->
    <path d="M160 16h32v6.5h-24V37h21v6.5h-21V64h-8V16z"/>
  </g>
  <!-- Tagline -->
  <text x="0" y="78" font-family="Inter, system-ui, -apple-system, sans-serif" font-size="9" font-weight="400" letter-spacing="0.15em" fill="#3A3A3A">AUTONOMOUS RELIABILITY ASSURANCE FOUNDATION</text>
</svg>