<svg xmlns="http://www.w3.org/2000/svg" viewBox="0 0 488 120" fill="none">
  <g fill="#FFFFFF">
    <!-- A (first) -->
    <path d="M0 120 L48 0 h24 L120 120 h-28 L81.5 88 H38.5 L28 120 H0z M46 66 h30 L61 24 L46 66z"/>
    <!-- R -->
    <path d="M132 0 h56 c28 0 46 16 46 38 c0 19-12 32-30 36.5 L238 120 h-30 L178 78 h-18 v42 h-28 V0z M186 58 c14 0 22-8 22-20 s-8-18-22-18 H160 v38 h26z"/>
    <!-- A (second) -->
    <path d="M248 120 L296 0 h24 L368 120 h-28 L329.5 88 H286.5 L276 120 H248z M294 66 h30 L309 24 L294 66z"/>
    <!-- F -->
    <path d="M380 0 h88 v22 h-60 v26 h52 v22 h-52 v50 h-28 V0z"/>
  </g>
</svg>